<?xml version="1.0" encoding="UTF-8"?>
<svg width="47px" height="51px" viewBox="0 0 47 51" version="1.1" xmlns="http://www.w3.org/2000/svg" xmlns:xlink="http://www.w3.org/1999/xlink">
    <!-- Generator: Sketch 61.2 (89653) - https://sketch.com -->
    <title>Analytics </title>
    <desc>Created with Sketch.</desc>
    <defs>
        <path d="M3.625,0.8125 L0.8125,0.8125 L0.8125,38.78125 C0.8125,39.5579004 1.44209957,40.1875 2.21875,40.1875 L40.1875,40.1875 L40.1875,37.375 L3.625,37.375 L3.625,0.8125 Z M40.1875,10.65625 L30.34375,10.65625 L30.34375,13.46875 L35.3864219,13.46875 L24.71875,24.1364219 L18.6817188,18.0993906 C18.1325622,17.5503223 17.2422971,17.5503223 16.6931406,18.0993906 L6.4375,28.3551719 L8.42607813,30.34375 L17.6875,21.0823281 L23.7245312,27.1193594 C24.2736878,27.6684277 25.1639529,27.6684277 25.7131094,27.1193594 L37.375,15.4573281 L37.375,20.5 L40.1875,20.5 L40.1875,10.65625 Z" id="path-1"></path>
    </defs>
    <g id="Analytics-" stroke="none" stroke-width="1" fill="none" fill-rule="evenodd">
        <g id="icon/data/analytics/32" transform="translate(3.000000, 5.000000)">
            <mask id="mask-2" fill="white">
                <use xlink:href="#path-1"></use>
            </mask>
            <use id="icon-color" fill="#5596E6" xlink:href="#path-1"></use>
        </g>
    </g>
</svg>