<svg id="Layer_1" data-name="Layer 1" xmlns="http://www.w3.org/2000/svg" xmlns:xlink="http://www.w3.org/1999/xlink" width="36.55" height="45.66" viewBox="0 0 36.55 45.66"><defs><style>.cls-1,.cls-2{fill:none;}.cls-1{clip-rule:evenodd;}.cls-10,.cls-3{fill:#fff;}.cls-3{stroke:#5596e6;stroke-width:2.4px;}.cls-4{fill:#5596e6;}.cls-5{clip-path:url(#clip-path);}.cls-6{clip-path:url(#clip-path-2);}.cls-7{isolation:isolate;}.cls-8{clip-path:url(#clip-path-3);}.cls-9{clip-path:url(#clip-path-4);}</style><clipPath id="clip-path" transform="translate(-6.78 -1.65)"><polygon class="cls-1" points="31.42 41.99 27.08 37.55 28.46 36.22 31.42 39.19 37.87 32.67 39.25 34.07 31.42 41.99"/></clipPath><clipPath id="clip-path-2" transform="translate(-6.78 -1.65)"><rect class="cls-2" x="19.25" y="22.9" width="27.82" height="28.4"/></clipPath><clipPath id="clip-path-3" transform="translate(-6.78 -1.65)"><rect class="cls-2" x="26.6" y="32.2" width="13.12" height="10.23"/></clipPath><clipPath id="clip-path-4" transform="translate(-6.78 -1.65)"><rect class="cls-2" x="27.02" y="32.63" width="12.28" height="9.38"/></clipPath></defs><title>database-admin</title><path id="Rectangle-Copy-4" class="cls-3" d="M35.22,17.06a2.19,2.19,0,0,0,.36,0,1.8,1.8,0,0,0,1.8-1.8v-9A1.79,1.79,0,0,0,36,4.5a50.2,50.2,0,0,0-12.7-1.65A62,62,0,0,0,9.38,4.57,1.79,1.79,0,0,0,8,6.32v8.89a1.64,1.64,0,0,0,0,.38A1.8,1.8,0,0,0,10.16,17a56.26,56.26,0,0,1,12-1.3A65.18,65.18,0,0,1,35.22,17.06Z" transform="translate(-6.78 -1.65)"/><path id="Rectangle" class="cls-3" d="M8.71,6.34H8.58a.6.6,0,0,0-.6.6V18.39a.6.6,0,0,0,.44.58A50.93,50.93,0,0,0,22,20.85a63.49,63.49,0,0,0,14.89-1.93.61.61,0,0,0,.46-.58V7a.59.59,0,0,0,0-.14.6.6,0,0,0-.72-.44A56.56,56.56,0,0,1,23.19,8,66.65,66.65,0,0,1,8.71,6.34Z" transform="translate(-6.78 -1.65)"/><circle id="Oval" class="cls-4" cx="6.3" cy="11.7" r="1.5"/><path id="Rectangle-2" data-name="Rectangle" class="cls-3" d="M8.71,18.16H8.58a.6.6,0,0,0-.6.6V30.21a.61.61,0,0,0,.44.58A50.93,50.93,0,0,0,22,32.67a63.49,63.49,0,0,0,14.89-1.93.61.61,0,0,0,.46-.58V18.81a.59.59,0,0,0,0-.14.6.6,0,0,0-.72-.44,56.56,56.56,0,0,1-13.45,1.63A66.65,66.65,0,0,1,8.71,18.16Z" transform="translate(-6.78 -1.65)"/><circle id="Oval-2" data-name="Oval" class="cls-4" cx="6.3" cy="23.52" r="1.5"/><path id="Rectangle-3" data-name="Rectangle" class="cls-3" d="M8.71,30l-.13,0a.6.6,0,0,0-.6.6V42.08a.6.6,0,0,0,.44.58A50.55,50.55,0,0,0,22,44.55a63.53,63.53,0,0,0,14.89-1.94.59.59,0,0,0,.46-.58V30.68a.78.78,0,0,0,0-.14.6.6,0,0,0-.72-.44,56.56,56.56,0,0,1-13.45,1.63A66.62,66.62,0,0,1,8.71,30Z" transform="translate(-6.78 -1.65)"/><circle id="Oval-3" data-name="Oval" class="cls-4" cx="6.3" cy="35.39" r="1.5"/><ellipse class="cls-4" cx="26.38" cy="35.28" rx="10.17" ry="10.38"/><g class="cls-5"><g class="cls-6"><g class="cls-7"><g class="cls-8"><g class="cls-9"><rect class="cls-10" x="19.88" y="30.59" width="13.01" height="10.17"/></g></g></g></g></g></svg>