<?xml version="1.0" encoding="UTF-8"?>
<svg width="47px" height="51px" viewBox="0 0 47 51" version="1.1" xmlns="http://www.w3.org/2000/svg" xmlns:xlink="http://www.w3.org/1999/xlink">
    <!-- Generator: Sketch 59.1 (86144) - https://sketch.com -->
    <title>Data Engineer Copy</title>
    <desc>Created with Sketch.</desc>
    <defs>
        <path d="M14.9718101,0 L15.7047316,3.33540884 C16.3532921,3.60147671 16.9480328,3.96151882 17.5404758,4.4353014 L17.5404758,4.4353014 L20.8640292,3.36801587 L23.9898112,8.53527835 L21.1479962,11.1310783 C21.1642427,11.357831 21.1683574,11.6255798 21.1683574,12 L21.1683574,12 L21.1682068,12.1501962 C21.1675612,12.4268943 21.1645924,12.5709952 21.1546593,12.7547276 C21.1511713,12.8192451 21.1468748,12.8828134 21.1416925,12.9457997 L21.1416925,12.9457997 L24,15.4478784 L20.8640292,20.6319841 L17.5246936,19.5596305 L17.5246936,19.5596305 L17.1981968,19.7916446 C16.7504695,20.0944119 16.2536992,20.3707907 15.7144897,20.6201835 L15.7144897,20.6201835 L14.9718101,24 L9.0281899,24 L8.29526837,20.6645912 C7.64670787,20.3985233 7.0519672,20.0384812 6.45952418,19.5646986 L6.45952418,19.5646986 L3.13597083,20.6319841 L0.0198399109,15.480676 L2.85702127,12.7811265 C2.85243495,12.7239657 2.8485657,12.6656198 2.84534071,12.6059673 C2.83392479,12.3948075 2.83164259,12.2306429 2.83164259,11.9008264 L2.83186449,11.7487381 C2.83265704,11.514983 2.83582744,11.3716521 2.84534071,11.1956856 C2.84799469,11.1465949 2.85108499,11.0983892 2.85465219,11.0510005 L2.85465219,11.0510005 L0,8.55212157 L3.13597083,3.36801587 L6.46668107,4.43759968 L6.46668107,4.43759968 L6.75962553,4.21718268 C7.25206888,3.86135837 7.76520066,3.56420504 8.29415305,3.34048449 L8.29415305,3.34048449 L9.0281899,0 L14.9718101,0 Z M19.9285412,18.0457018 L21.2319856,15.8909645 L18.8469122,13.8031411 L18.9692654,13.1744849 C19.0043525,12.9942054 19.0243951,12.8248612 19.0347297,12.6337021 C19.0433907,12.4734994 19.0451589,12.3390468 19.0451589,12 L19.0451589,12 L19.0447808,11.8306172 C19.0424225,11.3560238 19.0282363,11.1721759 18.9803465,10.9753281 L18.9803465,10.9753281 L18.8244054,10.3343421 L21.2421744,8.12587867 L19.9285412,5.95429818 L17.0567194,6.87652016 L16.6089284,6.47388532 C15.8953821,5.83229452 15.2539305,5.44455247 14.4937134,5.21019066 L14.4937134,5.21019066 L13.8998082,5.02709993 L13.274587,2.08695652 L10.725413,2.08695652 L10.1001918,5.02709993 L9.50628657,5.21019066 C8.79585208,5.42920535 8.06702557,5.8785746 7.38288326,6.48117249 L7.38288326,6.48117249 L6.93650636,6.87434475 L4.07145876,5.95429818 L2.76801442,8.10903545 L5.17932676,10.2198277 L5.01965347,10.8761546 C4.99387247,10.9821257 4.97535953,11.1300907 4.96527029,11.3167111 C4.95673482,11.4745913 4.95484115,11.6108082 4.95484115,11.9008264 C4.95484115,12.1908447 4.95673482,12.3270616 4.96527029,12.4849418 C4.97535953,12.6715622 4.99387247,12.8195272 5.01965347,12.9254983 L5.01965347,12.9254983 L5.17204197,13.5518815 L2.74817451,15.858167 L4.07145876,18.0457018 L6.94328063,17.1234798 L7.39107162,17.5261147 C8.10461787,18.1677055 8.74606945,18.5554475 9.50628657,18.7898093 L9.50628657,18.7898093 L10.1001918,18.9729001 L10.725413,21.9130435 L13.274587,21.9130435 L13.8861904,19.0348723 L14.4044937,18.8218271 C15.3086782,18.4501678 16.0618821,18.0078825 16.6171167,17.5188275 L16.6171167,17.5188275 L17.0634936,17.1256553 L19.9285412,18.0457018 Z M9.39130435,12 C9.39130435,13.5082753 10.4917247,14.6086957 12,14.6086957 C13.5082753,14.6086957 14.6086957,13.5082753 14.6086957,12 C14.6086957,10.4917247 13.5082753,9.39130435 12,9.39130435 C10.4917247,9.39130435 9.39130435,10.4917247 9.39130435,12 Z M7.30434783,12 C7.30434783,9.33913043 9.33913043,7.30434783 12,7.30434783 C14.6608696,7.30434783 16.6956522,9.33913043 16.6956522,12 C16.6956522,14.6608696 14.6608696,16.6956522 12,16.6956522 C9.33913043,16.6956522 7.30434783,14.6608696 7.30434783,12 Z" id="path-1"></path>
    </defs>
    <g id="Data-Engineer-Copy" stroke="none" stroke-width="1" fill="none" fill-rule="evenodd">
        <g id="Group" transform="translate(5.000000, 1.000000)">
            <path d="M3.35919694,1.99576106 C3.24098043,1.97168629 3.12064302,1.95955742 3,1.95955742 C2.00588717,1.95955742 1.19999968,2.76544501 1.2,3.75955795 L1.2,12.8156443 C1.2,13.6358631 1.75450006,14.3523579 2.54849646,14.5580977 C6.77387913,15.6529781 11.0062312,16.2 15.2478516,16.2 C19.5780464,16.2 24.2298794,15.6298903 29.2030678,14.4872462 C30.0205929,14.2994109 30.600001,13.5717802 30.6,12.7329536 L30.6,3.84509417 C30.6,3.71658909 30.5862389,3.58845346 30.5589522,3.46287882 C30.3478606,2.49142771 29.3892241,1.8750396 28.4177717,2.08614161 C24.4256318,2.95361422 20.4236653,3.38755924 16.4132812,3.38755924 C12.2644518,3.38755924 7.9130076,2.92314384 3.35919694,1.99576106 Z" id="Rectangle-Copy-4" stroke="#5596E6" stroke-width="2.4" fill="#FFFFFF" transform="translate(15.900000, 8.700000) rotate(-180.000000) translate(-15.900000, -8.700000) "></path>
            <path d="M1.93045257,4.6910877 C1.88762404,4.68154755 1.84387822,4.6767343 1.8,4.6767343 C1.46863176,4.6767343 1.20000216,4.94536323 1.2,5.27672781 L1.2,16.7359482 C1.2,17.005477 1.37971831,17.2419208 1.63943111,17.3140578 C6.16688645,18.5717187 10.7021009,19.2 15.2478516,19.2 C19.8493028,19.2 24.8139026,18.5562248 30.1412448,17.2658208 C30.4104177,17.2006209 30.5999939,16.9596451 30.6,16.6827015 L30.6,5.33722874 C30.6,5.28938957 30.5942786,5.24172209 30.5829576,5.19524176 C30.5045402,4.87328511 30.1799711,4.67585605 29.8580166,4.75427129 C25.3884129,5.84291086 20.9061884,6.38755924 16.4132812,6.38755924 C11.8325831,6.38755924 7.00488955,5.82142926 1.93045257,4.6910877 Z" id="Rectangle" stroke="#5596E6" stroke-width="2.4" fill="#FFFFFF"></path>
            <path d="M1.2,17.7248769 L1.2,30.3900071 C5.87353212,31.7304391 10.55516,32.4 15.2478516,32.4 C19.9812214,32.4 25.0987839,31.7187807 30.6,30.353324 L30.6,17.7685229 C25.8846585,18.9809155 21.1550231,19.5875592 16.4132812,19.5875592 C11.6133509,19.5875592 6.54220555,18.9659491 1.2,17.7248769 Z" id="Rectangle-Copy-2" stroke="#5596E6" stroke-width="2.4" fill="#FFFFFF"></path>
            <path d="M1.93045257,30.4910877 C1.88762404,30.4815476 1.84387822,30.4767343 1.8,30.4767343 C1.46863176,30.4767343 1.20000216,30.7453632 1.2,31.0767278 L1.2,42.5359482 C1.2,42.805477 1.37971831,43.0419208 1.63943111,43.1140578 C6.16688645,44.3717187 10.7021009,45 15.2478516,45 C19.8493028,45 24.8139026,44.3562248 30.1412448,43.0658208 C30.4104177,43.0006209 30.5999939,42.7596451 30.6,42.4827015 L30.6,31.1372287 C30.6,31.0893896 30.5942786,31.0417221 30.5829576,30.9952418 C30.5045402,30.6732851 30.1799711,30.4758561 29.8580166,30.5542713 C25.3884129,31.6429109 20.9061884,32.1875592 16.4132812,32.1875592 C11.8325831,32.1875592 7.00488955,31.6214293 1.93045257,30.4910877 Z" id="Rectangle-Copy-3" stroke="#5596E6" stroke-width="2.4" fill="#FFFFFF"></path>
            <path d="" id="Rectangle-Copy" stroke="#5596E6" stroke-width="2.4" fill="#FFFFFF"></path>
            <polygon id="Path-2" fill="#FFFFFF" points="30.2663546 42.1304124 28.1496916 43.9125611 28.1496916 46.2 23.663384 46.2 22.5913043 43.4560547 20.0269972 41.2956522 17.3141183 42.8950192 15 40.2449508 16.0714831 36.7706235 17.3141183 34.704793 15 32.0315699 16.0714831 29.6553717 17.3141183 28.5856184 20.0269972 29.6553717 21.6773071 27.5200276 23.663384 25.2 28.1496916 25.2 29.4391714 28.5856184 32.1978097 29.6553717 34.5030138 28.5856184 36 30.9467838 34.5030138 34.704793 34.5030138 38.1786915 36 40.2449508 34.5030138 42.8950192"></polygon>
            <g id="02_Design/Icons/01_Small/UI-Controls/settings" transform="translate(13.200000, 24.600000)">
                <mask id="mask-2" fill="white">
                    <use xlink:href="#path-1"></use>
                </mask>
                <use id="Mask" fill="#232323" fill-rule="nonzero" xlink:href="#path-1"></use>
                <g id="Icon-Color" mask="url(#mask-2)" fill="#5596E6">
                    <rect id="blue-40" x="0" y="0" width="24" height="24"></rect>
                </g>
            </g>
            <circle id="Oval" fill="#5596E6" cx="6.3" cy="11.7" r="1.5"></circle>
            <circle id="Oval-Copy" fill="#5596E6" cx="6.3" cy="24.9" r="1.5"></circle>
            <circle id="Oval-Copy-2" fill="#5596E6" cx="6.3" cy="38.1" r="1.5"></circle>
        </g>
    </g>
</svg>