<svg id="Layer_1" data-name="Layer 1" xmlns="http://www.w3.org/2000/svg" xmlns:xlink="http://www.w3.org/1999/xlink" viewBox="0 0 72.1 53.67"><defs><style>.cls-1{fill:#fff;}.cls-2{mask:url(#mask);}.cls-3{fill:#5596e6;}.cls-4{mask:url(#mask-2-2);}</style><mask id="mask" x="0" y="6.25" width="48.04" height="47.41" maskUnits="userSpaceOnUse"><g transform="translate(2.14 2.48)"><g id="mask-2"><path id="path-1" class="cls-1" d="M19.57,8.54,22.47,13a11.32,11.32,0,0,1,3.27.63h0L30,10.31l7.38,5.83L34.67,21.4c.14.31.3.7.5,1.24l.14.36c.12.31.18.5.26.74l.09.29h0l5.52,2.11L39.49,35.3l-5.43.21h0l-.24.36A15.9,15.9,0,0,1,32,38h0l.79,5.29-8.62,3.13L21.29,42A11.64,11.64,0,0,1,18,41.36h0l-4.23,3.3L6.43,38.84l2.62-5.4c0-.08-.07-.16-.11-.25-.13-.3-.23-.54-.41-1L8.46,32c-.14-.36-.21-.57-.3-.84l-.06-.22h0L2.58,28.82l1.69-9.16,5.42-.21h0l.25-.4a11.82,11.82,0,0,1,1.79-2.15h0L11,11.68ZM36.71,32.05l.7-3.81L32.8,26.48l-.17-1a4.79,4.79,0,0,0-.2-.81c-.08-.24-.15-.44-.33-.93h0l-.08-.2a6,6,0,0,0-.58-1.25h0l-.58-.84L33.14,17,30,14.54l-3.65,2.85-.87-.34a8.55,8.55,0,0,0-3.77-.71h0l-1,0-2.53-3.92-3.7,1.34.72,4.59-.76.58a9,9,0,0,0-2.38,3h0l-.43.8-4.66.18-.7,3.81L11,28.5l.13,1a3.41,3.41,0,0,0,.16.66l.19.54.24.63.13.34.09.19a3.33,3.33,0,0,0,.32.61h0l.56.82L10.59,38l3.13,2.47,3.65-2.85.87.34a8.57,8.57,0,0,0,3.77.72h0l1-.05,2.53,3.93,3.7-1.35-.7-4.49.63-.58A11.93,11.93,0,0,0,31.62,33h0l.43-.8ZM18.1,28.86a4,4,0,0,0,5.22,2.4,3.84,3.84,0,0,0,2.34-5.16,4,4,0,0,0-5.22-2.4A3.84,3.84,0,0,0,18.1,28.86Zm-3,1.1a7,7,0,0,1,4.22-9.28A7.27,7.27,0,0,1,28.69,25a7,7,0,0,1-4.22,9.28A7.27,7.27,0,0,1,15.07,30Z"/></g></g></mask><mask id="mask-2-2" x="33.58" y="0" width="38.52" height="38.8" maskUnits="userSpaceOnUse"><g transform="translate(2.14 2.48)"><g id="mask-4"><path id="path-3" class="cls-1" d="M42.53,5.39,46,7.24a8.17,8.17,0,0,1,2.31-.78h0l1.54-3.7,6.78,1.13.14,4.41c.21.16.44.35.76.63l.24.21.4.37.16.15h0L62.57,9l2.16,6.6-3.4,2.11h0l0,.38a12.47,12.47,0,0,1-.39,2h0l2.37,3.16-4.4,5.18-3.43-1.84a8.85,8.85,0,0,1-2.31.78h0l-1.54,3.69L44.83,30l-.23-4.49-.16-.12-.62-.51-.13-.12-.47-.42-.11-.12h0l-4.28.63-2.15-6.6,3.39-2.1h0l0-.42a9.11,9.11,0,0,1,.38-2h0l-2.34-3.13ZM61.8,14.52l-.9-2.74-3.57.52-.45-.58a5.84,5.84,0,0,0-.42-.46l-.54-.48h0l-.13-.11a4.25,4.25,0,0,0-.8-.59h0l-.67-.35L54.2,6l-2.85-.47L50,8.7l-.68.09a6.17,6.17,0,0,0-2.66.9h0l-.6.38-3-1.65-1.89,2.22,2.08,2.74L43,14a7,7,0,0,0-.48,2.8h0v.68L39.6,19.33l.9,2.74,3.61-.53.45.63a2.55,2.55,0,0,0,.34.37c.13.13.25.23.5.45l.11.1.4.32a2.51,2.51,0,0,0,.42.28h0L47,24l.2,3.83,2.87.48,1.33-3.19.68-.09a6.31,6.31,0,0,0,2.66-.91h0l.6-.38,3,1.65,1.89-2.22-2-2.68.2-.61a9.39,9.39,0,0,0,.51-2.9h0v-.68Zm-13,4.67A2.85,2.85,0,0,0,53,18.87a2.91,2.91,0,0,0-.32-4.22,2.85,2.85,0,0,0-4.18.33A2.89,2.89,0,0,0,48.77,19.19ZM47.22,21a5.31,5.31,0,0,1-.58-7.59,5.23,5.23,0,0,1,7.54-.59,5.31,5.31,0,0,1,.58,7.59A5.22,5.22,0,0,1,47.22,21Z"/></g></g></mask></defs><title>automation-V2</title><g id="automation"><g id="Group"><g id="_02_Design_Icons_01_Small_UI-Controls_settings" data-name="02_Design/Icons/01_Small/UI-Controls/settings"><g class="cls-2"><g id="Icon-Color"><polygon id="blue-40" class="cls-3" points="0 18.92 34.8 6.25 48.04 41 13.24 53.67 0 18.92"/></g></g></g><g id="_02_Design_Icons_01_Small_UI-Controls_settings-Copy" data-name="02_Design/Icons/01_Small/UI-Controls/settings-Copy"><g class="cls-4"><g id="Icon-Color-2" data-name="Icon-Color"><polygon id="blue-40-2" data-name="blue-40" class="cls-3" points="33.58 20.91 51.36 0 72.1 17.89 54.32 38.8 33.58 20.91"/></g></g></g></g></g></svg>