<?xml version="1.0" standalone="no"?>
<!DOCTYPE svg PUBLIC "-//W3C//DTD SVG 20010904//EN"
 "http://www.w3.org/TR/2001/REC-SVG-20010904/DTD/svg10.dtd">
<svg version="1.0" xmlns="http://www.w3.org/2000/svg"
 width="40.000000pt" height="40.000000pt" viewBox="0 0 40.000000 40.000000"
 preserveAspectRatio="xMidYMid meet">
<metadata>
Created by potrace 1.10, written by Peter Selinger 2001-2011
</metadata>
<g transform="translate(0.000000,40.000000) scale(0.100000,-0.100000)"
fill="#5596e6" stroke="none">
<path d="M247 383 c-4 -3 -7 -14 -7 -24 0 -10 -9 -19 -22 -21 -24 -3 -38 -28
-15 -28 18 0 16 -28 -2 -40 -8 -4 -10 -13 -7 -19 4 -6 12 -9 17 -5 14 8 39
-15 33 -31 -3 -7 -1 -16 5 -20 6 -3 14 1 17 9 8 20 33 21 40 2 3 -8 12 -12 20
-9 9 3 13 11 10 18 -6 17 13 35 30 28 8 -3 14 1 14 11 0 9 -4 16 -10 16 -5 0
-10 9 -10 20 0 11 7 20 15 20 9 0 12 6 8 16 -3 8 -11 13 -19 10 -15 -6 -38 19
-30 33 9 14 -17 19 -38 7 -14 -8 -20 -8 -23 2 -5 13 -16 16 -26 5z m71 -55
c20 -20 15 -66 -9 -78 -46 -25 -97 53 -51 79 23 14 45 14 60 -1z"/>
<path d="M120 245 c0 -20 -34 -37 -48 -23 -14 14 -36 0 -23 -16 15 -18 2 -56
-20 -56 -11 0 -19 -7 -19 -15 0 -8 8 -15 19 -15 22 0 34 -33 18 -49 -8 -8 -8
-14 1 -23 10 -10 15 -10 21 1 12 19 51 4 51 -20 0 -10 7 -19 15 -19 8 0 15 9
15 19 0 24 39 39 51 20 6 -11 11 -11 20 -2 9 9 9 15 0 26 -15 19 -4 47 20 47
10 0 19 7 19 15 0 8 -8 15 -19 15 -22 0 -35 38 -20 56 13 16 -9 30 -23 16 -14
-14 -48 3 -48 23 0 8 -7 15 -15 15 -8 0 -15 -7 -15 -15z m57 -67 c30 -28 29
-53 -2 -83 -31 -31 -49 -31 -80 0 -30 29 -31 45 -4 79 25 32 55 33 86 4z"/>
</g>
</svg>
