<?xml version="1.0" encoding="UTF-8"?>
<svg width="70px" height="51px" viewBox="0 0 70 51" version="1.1" xmlns="http://www.w3.org/2000/svg" xmlns:xlink="http://www.w3.org/1999/xlink">
    <!-- Generator: Sketch 59.1 (86144) - https://sketch.com -->
    <title>automation</title>
    <desc>Created with Sketch.</desc>
    <defs>
        <path d="M19.9300118,0.283811196 L20.8705944,4.46696978 C21.7029137,4.80066324 22.4661642,5.25221605 23.2264661,5.84641837 L23.2264661,5.84641837 L27.4916929,4.50786443 L31.5031132,10.9884728 L27.8561173,14.2440386 C27.8769669,14.5284242 27.8822475,14.8642258 27.8822475,15.3338112 L27.8822475,15.3338112 L27.8821021,15.5002746 C27.8813806,15.861699 27.8776813,16.0451337 27.8646682,16.2803654 C27.860192,16.3612811 27.8546781,16.4410063 27.8480274,16.5200016 L27.8480274,16.5200016 L31.5161888,19.6580254 L27.4916929,26.159758 L23.2062123,24.8148478 L23.2062123,24.8148478 L22.8587026,25.0581947 C22.2656569,25.4566086 21.6039356,25.8191453 20.8831173,26.144958 L20.8831173,26.144958 L19.9300118,30.3838112 L12.3023658,30.3838112 L11.3617832,26.2006526 C10.5294639,25.8669592 9.76621338,25.4154063 9.0059115,24.821204 L9.0059115,24.821204 L4.7406847,26.159758 L0.741650023,19.699159 L4.38269943,16.3134741 C4.37681365,16.2417848 4.37184811,16.1686094 4.36770938,16.0937952 C4.35305895,15.8289656 4.35013013,15.6230759 4.35013013,15.209431 C4.35013013,14.7957862 4.35305895,14.5898965 4.36770938,14.3250669 C4.37111532,14.263499 4.37508121,14.203041 4.37965912,14.1436077 L4.37965912,14.1436077 L0.716188804,11.009597 L4.7406847,4.50786443 L9.01509617,5.84930079 L9.01509617,5.84930079 L9.33693796,5.61129202 C9.98539745,5.14796933 10.6621347,4.76193501 11.3603519,4.47333549 L11.3603519,4.47333549 L12.3023658,0.283811196 L19.9300118,0.283811196 Z M26.2911501,22.9161289 L27.9639036,20.2137292 L24.9030594,17.5952507 L25.0600794,16.806811 C25.1051079,16.5807105 25.1308292,16.3683247 25.1440919,16.1285793 C25.1552069,15.9276583 25.157476,15.7590324 25.157476,15.3338112 L25.157476,15.3338112 L25.1571435,15.1548222 C25.1546237,14.5346919 25.1368968,14.3001537 25.0743002,14.0487019 L25.0743002,14.0487019 L24.8741758,13.2447986 L27.9769793,10.4750174 L26.2911501,7.7514935 L22.6056453,8.90811356 L22.0309802,8.40314237 C21.1152625,7.59848058 20.2920663,7.11218742 19.3164544,6.81825865 L19.3164544,6.81825865 L18.554276,6.58863236 L17.7519088,2.9012025 L14.4804688,2.9012025 L13.6781016,6.58863236 L12.9159232,6.81825865 C12.004199,7.09293957 11.0688716,7.65652351 10.190889,8.4122817 L10.190889,8.4122817 L9.61803863,8.90538523 L5.94122754,7.7514935 L4.26847397,10.4538932 L7.36299148,13.1011784 L7.15807743,13.9243217 C7.12499181,14.0572272 7.10123354,14.2427999 7.08828567,14.476853 C7.07733182,14.6748612 7.07490161,14.8456998 7.07490161,15.209431 L7.07506816,15.3541477 C7.07576991,15.6225278 7.07889666,15.7722878 7.08828567,15.942009 C7.10123354,16.1760622 7.12499181,16.3616348 7.15807743,16.4945403 L7.15807743,16.4945403 L7.35364266,17.2801293 L4.24301276,20.1725956 L5.94122754,22.9161289 L9.62673228,21.7595088 L10.2013974,22.26448 C11.1171151,23.0691418 11.9403113,23.555435 12.9159232,23.8493637 L12.9159232,23.8493637 L13.6781016,24.07899 L14.4804688,27.7664199 L17.7519088,27.7664199 L18.5367998,24.1567136 L19.2019557,23.8895193 C20.3623258,23.4233966 21.3289375,22.8686972 22.0414886,22.2553407 L22.0414886,22.2553407 L22.614339,21.7622372 L26.2911501,22.9161289 Z M12.7683627,15.3338112 C12.7683627,17.2254398 14.1805688,18.6055503 16.1161888,18.6055503 C18.0518088,18.6055503 19.4640149,17.2254398 19.4640149,15.3338112 C19.4640149,13.4421826 18.0518088,12.0620721 16.1161888,12.0620721 C14.1805688,12.0620721 12.7683627,13.4421826 12.7683627,15.3338112 Z M10.0901018,15.3338112 C10.0901018,11.9966373 12.7014062,9.44468076 16.1161888,9.44468076 C19.5309714,9.44468076 22.1422758,11.9966373 22.1422758,15.3338112 C22.1422758,18.6709851 19.5309714,21.2229416 16.1161888,21.2229416 C12.7014062,21.2229416 10.0901018,18.6709851 10.0901018,15.3338112 Z" id="path-1"></path>
        <path d="M16.1570784,0 L16.9480229,3.50217928 C17.6479278,3.78155054 18.2897521,4.15959476 18.9290968,4.65706647 L18.9290968,4.65706647 L22.5157648,3.53641666 L25.8890046,8.96204227 L22.8222126,11.6876322 C22.8397452,11.9257225 22.8441857,12.2068588 22.8441857,12.6 L22.8441857,12.6 L22.8440231,12.757706 C22.8433265,13.048239 22.8401226,13.1995449 22.8294032,13.392464 C22.825639,13.4602074 22.8210024,13.526954 22.8154098,13.5930897 L22.8154098,13.5930897 L25.9,16.2202723 L22.5157648,21.6635833 L18.9120652,20.537612 L18.9120652,20.537612 L18.6198411,20.7413443 C18.1211436,21.0749002 17.5646961,21.3784193 16.9585535,21.6511927 L16.9585535,21.6511927 L16.1570784,25.2 L9.7429216,25.2 L8.95197712,21.6978207 C8.25207224,21.4184495 7.61024794,21.0404052 6.97090317,20.5429335 L6.97090317,20.5429335 L3.38423518,21.6635833 L0.0214105705,16.2547098 L3.08320212,13.4201829 C3.07825271,13.360164 3.07407715,13.2989008 3.07059685,13.2362657 C3.05827717,13.0145478 3.0558143,12.8421751 3.0558143,12.4958678 C3.0558143,12.1495605 3.05827717,11.9771877 3.07059685,11.7554699 C3.07346094,11.7039247 3.07679589,11.6533086 3.08064549,11.6035506 L3.08064549,11.6035506 L0,8.97972765 L3.38423518,3.53641666 L6.97862665,4.65947966 L6.97862665,4.65947966 L7.29476255,4.42804181 C7.826191,4.05442629 8.37994571,3.74241529 8.9507735,3.50750871 L8.9507735,3.50750871 L9.7429216,0 L16.1570784,0 Z M21.5062174,18.9479869 L22.9128511,16.6855128 L20.3389594,14.4932982 L20.4709989,13.8332091 C20.5088638,13.6439157 20.530493,13.4661043 20.5416458,13.2653872 C20.548322,13.1452352 20.551203,13.0388778 20.5523043,12.8581733 L20.5524926,12.422148 C20.5499476,11.923825 20.5346383,11.7307847 20.4829573,11.5240945 L20.4829573,11.5240945 L20.3146709,10.8510593 L22.9238465,8.53217261 L21.5062174,6.25201309 L18.407043,7.22034616 L17.9238019,6.79757959 C17.1537665,6.12390925 16.4615334,5.71678009 15.6411324,5.47070019 L15.6411324,5.47070019 L15.0002097,5.27845492 L14.3254918,2.19130435 L11.5745082,2.19130435 L10.8997903,5.27845492 L10.2588676,5.47070019 C9.49219037,5.70066561 8.70566509,6.17250333 7.96736152,6.80523112 L7.96736152,6.80523112 L7.48564645,7.21806199 L4.39378258,6.25201309 L2.98714889,8.51448723 L5.58935679,10.7308191 L5.41704271,11.4199623 C5.38922071,11.531232 5.36924216,11.6865952 5.35835419,11.8825467 C5.35221339,11.9930628 5.3492582,12.0934694 5.34797038,12.2383555 L5.34797038,12.7533801 C5.3492582,12.8982661 5.35221339,12.9986727 5.35835419,13.1091889 C5.36924216,13.3051403 5.38922071,13.4605035 5.41704271,13.5717732 L5.41704271,13.5717732 L5.58149529,14.2294756 L2.96573832,16.6510753 L4.39378258,18.9479869 L7.49295702,17.9796538 L7.97619813,18.4024204 C8.74623345,19.0760908 9.43846662,19.4832199 10.2588676,19.7292998 L10.2588676,19.7292998 L10.8997903,19.9215451 L11.5745082,23.0086957 L14.3254918,23.0086957 L14.9855138,19.9866159 L15.5448494,19.7629184 C16.5206152,19.3726762 17.3334478,18.9082766 17.9326385,18.3947689 L17.9326385,18.3947689 L18.4143536,17.981938 L21.5062174,18.9479869 Z M10.1347826,12.6 C10.1347826,14.1836891 11.3223196,15.3391304 12.95,15.3391304 C14.5776804,15.3391304 15.7652174,14.1836891 15.7652174,12.6 C15.7652174,11.0163109 14.5776804,9.86086957 12.95,9.86086957 C11.3223196,9.86086957 10.1347826,11.0163109 10.1347826,12.6 Z M7.8826087,12.6 C7.8826087,9.80608696 10.0784783,7.66956522 12.95,7.66956522 C15.8215217,7.66956522 18.0173913,9.80608696 18.0173913,12.6 C18.0173913,15.393913 15.8215217,17.5304348 12.95,17.5304348 C10.0784783,17.5304348 7.8826087,15.393913 7.8826087,12.6 Z" id="path-3"></path>
    </defs>
    <g id="automation" stroke="none" stroke-width="1" fill="none" fill-rule="evenodd">
        <g id="02_Design/Icons/01_Small/UI-Controls/settings" transform="translate(14.000000, 21.046996)">
            <mask id="mask-2" fill="white">
                <use xlink:href="#path-1"></use>
            </mask>
            <use id="Mask" fill="#232323" fill-rule="nonzero" xlink:href="#path-1"></use>
            <g id="Icon-Color" mask="url(#mask-2)" fill="#5596E6">
                <g transform="translate(0.716189, 0.283811)" id="blue-40">
                    <rect x="0" y="0" width="30.8" height="30.1"></rect>
                </g>
            </g>
        </g>
        <g id="02_Design/Icons/01_Small/UI-Controls/settings-Copy" transform="translate(44.000000, 14.046996) rotate(34.000000) translate(-44.000000, -14.046996) translate(31.000000, 1.046996)">
            <mask id="mask-4" fill="white">
                <use xlink:href="#path-3"></use>
            </mask>
            <use id="Mask" fill="#232323" fill-rule="nonzero" xlink:href="#path-3"></use>
            <g id="Icon-Color" mask="url(#mask-4)" fill="#5596E6">
                <rect id="blue-40" x="0" y="0" width="25.9" height="25.2"></rect>
            </g>
        </g>
    </g>
</svg>