<?xml version="1.0" encoding="UTF-8"?>
<svg width="51px" height="51px" viewBox="0 0 51 51" version="1.1" xmlns="http://www.w3.org/2000/svg" xmlns:xlink="http://www.w3.org/1999/xlink">
    <!-- Generator: Sketch 59.1 (86144) - https://sketch.com -->
    <title>project-manager</title>
    <desc>Created with Sketch.</desc>
    <defs>
        <path d="M15.1875,30.423125 L9.2415625,24.4771875 L6.90625,26.8125 L15.1875,35.09375 L30.09375,20.1725937 L27.7584375,17.8372812 L15.1875,30.423125 L15.1875,30.423125 Z M33.5905906,5.28125 L28.4375,5.28125 L28.4375,3.44065938 C28.4356743,1.71378147 27.0362185,0.314325743 25.3093406,0.3125 L11.6906594,0.3125 C9.96378147,0.314325743 8.56432574,1.71378147 8.5625,3.44065938 L8.5625,5.28125 L3.40940938,5.28125 C1.68253147,5.28307574 0.283075743,6.68253147 0.28125,8.40940937 L0.28125,43.5593406 C0.283075743,45.2862185 1.68253147,46.6856743 3.40940938,46.6875 L33.5905906,46.6875 C35.3174685,46.6856743 36.7169243,45.2862185 36.71875,43.5593406 L36.71875,8.40940938 C36.7169243,6.68253147 35.3174685,5.28307574 33.5905906,5.28125 Z M11.875,3.625 L25.125,3.625 L25.125,10.25 L11.875,10.25 L11.875,3.625 Z M33.40625,43.375 L3.59375,43.375 L3.59375,8.59375 L8.5625,8.59375 L8.5625,13.5625 L28.4375,13.5625 L28.4375,8.59375 L33.40625,8.59375 L33.40625,43.375 Z" id="path-1"></path>
    </defs>
    <g id="project-manager" stroke="none" stroke-width="1" fill="none" fill-rule="evenodd">
        <g id="icon/image/task/24" transform="translate(3.000000, 1.000000)">
            <mask id="mask-2" fill="white">
                <use xlink:href="#path-1"></use>
            </mask>
            <use id="icon-color" fill="#5596E6" xlink:href="#path-1"></use>
        </g>
    </g>
</svg>