<?xml version="1.0" encoding="UTF-8"?>
<svg width="47px" height="51px" viewBox="0 0 47 51" version="1.1" xmlns="http://www.w3.org/2000/svg" xmlns:xlink="http://www.w3.org/1999/xlink">
    <!-- Generator: Sketch 63.1 (92452) - https://sketch.com -->
    <title>SalesForce Developer Copy 2</title>
    <desc>Created with Sketch.</desc>
    <defs>
        <path d="M16.875,10.475 C16.875,10.31875 16.875,10.1625 16.875,10 C16.875,9.8375 16.875,9.68125 16.875,9.51875 L18.075,8.4625 C18.5283482,8.06077374 18.6284286,7.39181491 18.3125,6.875 L16.8375,4.375 C16.5388611,3.86091862 15.9194543,3.62831439 15.35625,3.81875 L13.8375,4.33125 C13.5758202,4.1542946 13.3022553,3.9955852 13.01875,3.85625 L12.70625,2.28125 C12.5882894,1.68735528 12.061635,1.26339852 11.45625,1.275 L8.525,1.275 C7.91961496,1.26339852 7.3929606,1.68735528 7.275,2.28125 L6.9625,3.85625 C6.67489365,3.99305742 6.39714136,4.14968466 6.13125,4.325 L4.64375,3.7875 C4.07298978,3.60244656 3.45125552,3.84904159 3.1625,4.375 L1.6875,6.875 C1.39010627,7.39043219 1.49730091,8.04405803 1.94375,8.4375 L3.125,9.525 C3.125,9.68125 3.125,9.8375 3.125,10 C3.125,10.1625 3.125,10.31875 3.125,10.48125 L1.94375,11.53125 C1.48078167,11.9287444 1.37246601,12.602415 1.6875,13.125 L3.1625,15.625 C3.4611389,16.1390814 4.08054565,16.3716856 4.64375,16.18125 L6.1625,15.66875 C6.42417983,15.8457054 6.69774471,16.0044148 6.98125,16.14375 L7.29375,17.71875 C7.4117106,18.3126447 7.93836496,18.7366015 8.54375,18.725 L11.49375,18.725 C12.099135,18.7366015 12.6257894,18.3126447 12.74375,17.71875 L13.05625,16.14375 C13.3438563,16.0069426 13.6216086,15.8503153 13.8875,15.675 L15.4,16.1875 C15.9515354,16.3535968 16.545166,16.1213066 16.8375,15.625 L18.3125,13.125 C18.6098937,12.6095678 18.5026991,11.955942 18.05625,11.5625 L16.875,10.475 Z M15.75625,15 L13.6125,14.275 C13.1091327,14.6963402 12.5358993,15.0263195 11.91875,15.25 L11.475,17.5 L8.525,17.5 L8.08125,15.28125 C7.46860666,15.0532164 6.89986114,14.7212719 6.4,14.3 L4.24375,15 L2.76875,12.5 L4.475,11.00625 C4.35982991,10.359252 4.35982991,9.69699804 4.475,9.05 L2.76875,7.5 L4.24375,5 L6.3875,5.725 C6.89086732,5.30365982 7.4641007,4.97368046 8.08125,4.75 L8.525,2.5 L11.475,2.5 L11.91875,4.71875 C12.5313933,4.94678365 13.1001389,5.27872806 13.6,5.7 L15.75625,5 L17.23125,7.5 L15.525,9 C15.6403012,9.64698645 15.6403012,10.3092636 15.525,10.95625 L17.23125,12.5 L15.75625,15 Z M10,13.75 C7.92893219,13.75 6.25,12.0710678 6.25,10 C6.25,7.92893219 7.92893219,6.25 10,6.25 C12.0710678,6.25 13.75,7.92893219 13.75,10 C13.760129,10.9976325 13.3682943,11.9573562 12.6628253,12.6628253 C11.9573562,13.3682943 10.9976325,13.760129 10,13.75 Z M10,7.5 C9.33231193,7.48444591 8.68734984,7.74284013 8.21509499,8.21509499 C7.74284013,8.68734984 7.48444591,9.33231193 7.5,10 C7.48444591,10.6676881 7.74284013,11.3126502 8.21509499,11.784905 C8.68734984,12.2571599 9.33231193,12.5155541 10,12.5 C10.6676881,12.5155541 11.3126502,12.2571599 11.784905,11.784905 C12.2571599,11.3126502 12.5155541,10.6676881 12.5,10 C12.5155541,9.33231193 12.2571599,8.68734984 11.784905,8.21509499 C11.3126502,7.74284013 10.6676881,7.48444591 10,7.5 Z" id="path-1"></path>
    </defs>
    <g id="SalesForce-Developer-Copy-2" stroke="none" stroke-width="1" fill="none" fill-rule="evenodd">
        <path d="M5.64111178,20.9299841 C4.72814175,15.5327 5.98227681,11.8858268 9.40351697,9.98936458 C12.8247571,8.09290235 16.3899524,8.92286352 20.0991028,12.4792481 C22.4869937,10.4157173 24.9393102,9.58575613 27.4560523,9.98936458 C29.9727944,10.392973 31.7332964,11.8221667 32.7375584,14.2769457 C34.4937575,13.4673392 36.3038898,13.2088967 38.1679551,13.5016182 C43.4388879,14.3293337 46,17.9167333 46,22.5388689 C46,28.9922863 42.1642962,32.2189949 34.4928887,32.2189949 C33.0350255,34.1550868 31.5849816,35.2775909 30.142757,35.5865073 C28.7005324,35.8954237 27.1512307,35.7108026 25.4948521,35.0326441 C23.4075952,38.6668989 20.8026484,40.3069627 17.6800116,39.9528358 C14.5573748,39.5987089 12.2974663,37.8483852 10.9002861,34.7018647 C6.14179805,34.7538694 3.28561856,33.0660307 2.33174763,29.6383489 C1.37787669,26.210667 2.48099808,23.3078787 5.64111178,20.9299841 Z" id="Path-3" stroke="#5596E6" fill="#5596E6"></path>
        <g id="icon/image/settings/20" transform="translate(13.000000, 13.000000)">
            <mask id="mask-2" fill="white">
                <use xlink:href="#path-1"></use>
            </mask>
            <use id="icon-color" fill="#FFFFFF" fill-rule="evenodd" xlink:href="#path-1"></use>
        </g>
    </g>
</svg>