<?xml version="1.0" encoding="UTF-8"?>
<svg width="51px" height="51px" viewBox="0 0 51 51" version="1.1" xmlns="http://www.w3.org/2000/svg" xmlns:xlink="http://www.w3.org/1999/xlink">
    <!-- Generator: Sketch 59.1 (86144) - https://sketch.com -->
    <title>technician</title>
    <desc>Created with Sketch.</desc>
    <defs>
        <path d="M16.9991047,0 C13.6329454,0 10.435094,1.00624442 7.91047449,2.68331847 L10.435094,5.19892953 L10.7717099,5.53434434 L18.6821844,13.4165923 C20.1969561,14.925959 20.3652641,17.2738626 19.0188004,18.4478145 C17.6723366,19.7894737 15.484333,19.6217663 13.9695613,18.1123996 L5.7224709,10.2301517 L5.217547,9.89473684 L2.86123545,7.37912578 C1.00984781,10.0624442 0,13.2488849 0,16.9384478 C0,26.162355 7.57385855,33.8768956 16.9991047,33.8768956 C18.5138765,33.8768956 20.0286482,33.7091882 21.3751119,33.3737734 L32.6517457,44.6101695 C35.8495971,47.7966102 41.2354521,47.7966102 44.6016115,44.6101695 C47.7994628,41.4237288 47.7994628,36.0570919 44.6016115,32.7029438 L33.3249776,21.4665477 C33.6615936,20.1248885 33.8299015,18.6155219 33.8299015,17.1061552 C33.9982095,7.54683318 26.256043,0 16.9991047,0 Z M30.4637422,16.9384478 C30.4637422,18.1123996 30.2954342,19.2863515 29.9588183,20.4603033 L29.4538944,22.3050847 L30.8003581,23.646744 L42.0769919,34.8831401 C43.0868397,35.8893845 43.5917637,37.0633363 43.5917637,38.4049955 C43.5917637,39.7466548 43.0868397,41.088314 42.0769919,41.926851 C40.0572963,43.9393399 36.8594449,43.9393399 35.0080573,41.926851 L23.7314235,30.690455 L22.3849597,29.3487957 L20.5335721,29.8519179 C19.3554163,30.1873327 18.1772605,30.3550401 16.9991047,30.3550401 C13.4646374,30.3550401 10.0984781,29.0133809 7.40555058,26.4977698 C4.7126231,23.9821588 3.36615936,20.6280107 3.36615936,16.9384478 C3.36615936,15.764496 3.53446732,14.4228368 3.87108326,13.2488849 L11.2766338,20.6280107 C14.1378693,23.4790366 18.5138765,23.646744 21.2068039,20.9634255 C23.8997314,18.280107 23.7314235,13.9197145 20.870188,11.0686887 L13.4646374,3.68956289 C14.4744852,3.35414808 15.652641,3.18644068 16.8307968,3.18644068 C20.3652641,3.18644068 23.7314235,4.52809991 26.4243509,7.04371097 C28.9489705,9.72702944 30.4637422,13.0811775 30.4637422,16.9384478 Z" id="path-1"></path>
    </defs>
    <g id="technician" stroke="none" stroke-width="1" fill="none" fill-rule="evenodd">
        <g id="icon/image/tool/24" transform="translate(2.000000, 1.000000)">
            <mask id="mask-2" fill="white">
                <use xlink:href="#path-1"></use>
            </mask>
            <use id="icon-color" fill="#5596E6" xlink:href="#path-1"></use>
        </g>
    </g>
</svg>