<?xml version="1.0" encoding="UTF-8"?>
<svg width="52px" height="51px" viewBox="0 0 52 51" version="1.1" xmlns="http://www.w3.org/2000/svg" xmlns:xlink="http://www.w3.org/1999/xlink">
    <!-- Generator: Sketch 59.1 (86144) - https://sketch.com -->
    <title>ux icon copy</title>
    <desc>Created with Sketch.</desc>
    <defs>
        <path d="M9.75,34.78125 L9.75,33.125 L6.5,33.125 L6.5,34.78125 C6.5,41.1843013 11.592761,46.375 17.875,46.375 L22.75,46.375 L22.75,43.0625 L17.875,43.0625 C13.3876864,43.0625 9.75,39.3548581 9.75,34.78125 Z M39,18.21875 L39,19.875 L42.25,19.875 L42.25,18.21875 C42.25,11.8156987 37.157239,6.625 30.875,6.625 L26,6.625 L26,9.9375 L30.875,9.9375 C33.029884,9.9375 35.0965095,10.8099863 36.6202426,12.363022 C38.1439757,13.9160576 39,16.0224259 39,18.21875 L39,18.21875 Z M17.875,18.21875 L8.125,18.21875 C5.43261184,18.21875 3.25,20.4433351 3.25,23.1875 L3.25,26.5 L6.5,26.5 L6.5,23.1875 C6.5,22.2727784 7.22753728,21.53125 8.125,21.53125 L17.875,21.53125 C18.7724627,21.53125 19.5,22.2727784 19.5,23.1875 L19.5,26.5 L22.75,26.5 L22.75,23.1875 C22.75,20.4433351 20.5673882,18.21875 17.875,18.21875 L17.875,18.21875 Z M13,16.5625 C16.5898509,16.5625 19.5,13.5963865 19.5,9.9375 C19.5,6.27861353 16.5898509,3.3125 13,3.3125 C9.41014913,3.3125 6.5,6.27861353 6.5,9.9375 C6.5,13.5963865 9.41014913,16.5625 13,16.5625 Z M13,6.625 C14.7949254,6.625 16.25,8.10805677 16.25,9.9375 C16.25,11.7669432 14.7949254,13.25 13,13.25 C11.2050746,13.25 9.75,11.7669432 9.75,9.9375 C9.75,8.10805677 11.2050746,6.625 13,6.625 Z M43.875,41.40625 L34.125,41.40625 C31.4326118,41.40625 29.25,43.6308351 29.25,46.375 L29.25,49.6875 L32.5,49.6875 L32.5,46.375 C32.5,45.4602784 33.2275373,44.71875 34.125,44.71875 L43.875,44.71875 C44.7724627,44.71875 45.5,45.4602784 45.5,46.375 L45.5,49.6875 L48.75,49.6875 L48.75,46.375 C48.75,43.6308351 46.5673882,41.40625 43.875,41.40625 L43.875,41.40625 Z M32.5,33.125 C32.5,36.7838865 35.4101491,39.75 39,39.75 C42.5898509,39.75 45.5,36.7838865 45.5,33.125 C45.5,29.4661135 42.5898509,26.5 39,26.5 C35.4101491,26.5 32.5,29.4661135 32.5,33.125 Z M42.25,33.125 C42.25,34.9544432 40.7949254,36.4375 39,36.4375 C37.2050746,36.4375 35.75,34.9544432 35.75,33.125 C35.75,31.2955568 37.2050746,29.8125 39,29.8125 C40.7949254,29.8125 42.25,31.2955568 42.25,33.125 Z" id="path-1"></path>
    </defs>
    <g id="ux-icon-copy" stroke="none" stroke-width="1" fill="none" fill-rule="evenodd">
        <g id="icon/user/collaborate/32" transform="translate(0.000000, -1.000000)">
            <mask id="mask-2" fill="white">
                <use xlink:href="#path-1"></use>
            </mask>
            <use id="icon-color" fill="#5596E6" fill-rule="evenodd" xlink:href="#path-1"></use>
        </g>
    </g>
</svg>